<svg xmlns="http://www.w3.org/2000/svg" xmlns:xlink="http://www.w3.org/1999/xlink" width="1080" zoomAndPan="magnify" viewBox="0 0 810 809.999993" height="1080" preserveAspectRatio="xMidYMid meet" version="1.0"><defs><clipPath id="aff4c8fec7"><path d="M 229 116.578125 L 606 116.578125 L 606 810 L 229 810 Z M 229 116.578125 " clip-rule="nonzero"/></clipPath></defs><path fill="#eeecde" d="M 397.449219 388.480469 C 381.472656 305.007812 395.890625 240.460938 432.394531 163.707031 C 445.859375 200.882812 445.082031 242.042969 436.667969 280.675781 C 428.253906 319.308594 412.550781 355.917969 396.496094 392.050781 Z M 432.253906 646.609375 C 433.335938 641.019531 434.566406 635.460938 435.925781 629.933594 C 435.046875 630.6875 434.167969 631.441406 433.285156 632.195312 Z M 435.925781 629.933594 C 446.816406 620.59375 457.703125 611.257812 468.589844 601.917969 C 490.023438 583.539062 511.652344 564.953125 528.4375 542.25 C 551.726562 510.757812 564.8125 471.84375 565.28125 432.683594 C 501.421875 481.167969 455.074219 552.121094 435.925781 629.933594 Z M 354.582031 559.378906 C 326.238281 538.800781 290.148438 529.371094 265.226562 504.765625 C 268.558594 533.070312 283.082031 559.125 301.703125 580.703125 C 320.328125 602.285156 343 619.929688 365.507812 637.417969 C 383.828125 651.652344 403.398438 666.421875 426.441406 669.128906 L 430.078125 669.070312 C 411.652344 628.105469 390.933594 585.773438 354.582031 559.378906 Z M 354.582031 559.378906 " fill-opacity="1" fill-rule="nonzero"/><g clip-path="url(#aff4c8fec7)"><path fill="#eeecde" d="M 605.953125 580.984375 C 605.304688 610.917969 587.589844 638.421875 564.734375 657.765625 C 541.878906 677.109375 514.132812 689.578125 486.792969 701.792969 C 467.886719 710.242188 448.984375 718.6875 430.078125 727.136719 C 429.621094 730.5 429.144531 733.863281 428.640625 737.21875 C 427.714844 743.332031 426.832031 749.453125 425.667969 755.527344 L 424.027344 764.652344 L 423.199219 769.214844 L 422.253906 773.757812 C 420.960938 779.800781 419.796875 785.878906 418.398438 791.898438 C 417.082031 797.9375 415.445312 803.933594 410.542969 809.042969 C 409.390625 810.246094 407.480469 810.285156 406.277344 809.132812 C 405.890625 808.761719 405.625 808.3125 405.480469 807.835938 L 405.457031 807.753906 C 403.402344 800.933594 404.617188 795.003906 406.152344 789.113281 C 407.542969 783.195312 408.699219 777.222656 409.984375 771.28125 L 410.925781 766.816406 L 411.75 762.332031 L 413.386719 753.359375 C 414.546875 747.386719 415.429688 741.371094 416.355469 735.363281 C 416.441406 734.792969 416.515625 734.226562 416.601562 733.65625 L 415.65625 734.25 C 373.855469 722.582031 330.460938 710.066406 298.113281 681.140625 C 285.785156 670.117188 275.480469 657.039062 265.679688 643.714844 C 253.71875 627.464844 242.40625 610.734375 231.769531 593.585938 C 308.171875 610.589844 376.808594 659.785156 417.648438 726.511719 C 420.609375 705.378906 422.671875 684.113281 423.828125 662.796875 C 425.207031 638.507812 425.414062 614.144531 424.476562 589.816406 C 424.074219 579.316406 423.441406 568.824219 422.617188 558.34375 C 389.078125 537.375 360.179688 509.707031 331.597656 482.277344 C 302.375 454.226562 271.726562 423.699219 263.332031 384.078125 C 330.785156 404.988281 391.886719 470.140625 420.78125 538.082031 C 420.054688 531.058594 419.257812 524.042969 418.363281 517.035156 C 415.269531 492.867188 411.066406 468.835938 405.910156 445.003906 C 404.425781 438.085938 402.839844 431.1875 401.179688 424.308594 C 362.09375 413.449219 327.101562 390.066406 298.851562 360.910156 C 269.78125 330.90625 247.472656 294.941406 229.015625 257.46875 C 293.664062 286.753906 358.734375 327.652344 391.632812 388.152344 C 390.292969 383.488281 388.929688 378.828125 387.515625 374.183594 C 382.199219 356.523438 376.339844 339.019531 369.96875 321.695312 C 361.40625 314.023438 354.710938 301.777344 348.167969 293.359375 C 308.328125 242.125 281.738281 180.683594 271.648438 116.578125 C 310.09375 130.941406 339.054688 164.609375 355.394531 202.246094 C 369.726562 235.246094 371.199219 271.941406 372.734375 308.105469 C 381.246094 328.945312 389.03125 350.097656 396.015625 371.523438 C 403.582031 394.980469 410.207031 418.757812 415.792969 442.789062 C 419.09375 457.039062 422.011719 471.382812 424.5625 485.792969 C 429.707031 413.832031 455.105469 343.316406 497.570312 284.949219 C 507.851562 327.191406 500.511719 372.1875 484.78125 412.71875 C 470.71875 448.957031 450.25 482.25 429.222656 515.003906 C 429.246094 515.191406 429.277344 515.378906 429.304688 515.566406 C 436.238281 564.460938 438.480469 614.054688 436.058594 663.441406 C 435.429688 675.613281 434.507812 687.773438 433.292969 699.902344 C 434.34375 698.648438 435.414062 697.414062 436.484375 696.207031 C 482.300781 644.605469 541.109375 604.621094 605.953125 580.984375 Z M 605.953125 580.984375 " fill-opacity="1" fill-rule="nonzero"/></g><path fill="#eeecde" d="M 477.929688 372.671875 C 470.121094 398.09375 460.785156 423.03125 450.042969 447.359375 C 449.140625 449.40625 446.140625 447.632812 447.035156 445.605469 C 450.066406 438.746094 452.980469 431.835938 455.777344 424.878906 C 465.632812 400.34375 474.027344 375.226562 480.933594 349.703125 C 481.515625 347.539062 484.875 348.464844 484.289062 350.628906 C 482.292969 358.011719 480.175781 365.359375 477.929688 372.671875 Z M 318.988281 434.089844 C 313.664062 427.917969 308.335938 421.746094 303.011719 415.574219 C 301.542969 413.878906 299.089844 416.347656 300.546875 418.039062 C 319.230469 439.679688 337.910156 461.324219 356.589844 482.964844 C 361.917969 489.136719 367.246094 495.308594 372.570312 501.480469 C 374.039062 503.175781 376.492188 500.707031 375.035156 499.015625 C 356.351562 477.375 337.671875 455.730469 318.988281 434.089844 Z M 336.714844 237.757812 C 339.828125 245.246094 342.945312 252.730469 346.0625 260.21875 C 346.910156 262.253906 350.277344 261.359375 349.417969 259.292969 C 338.492188 233.039062 327.566406 206.785156 316.640625 180.53125 C 313.527344 173.042969 310.410156 165.558594 307.296875 158.070312 C 306.449219 156.03125 303.078125 156.925781 303.9375 158.996094 C 314.863281 185.25 325.789062 211.503906 336.714844 237.757812 Z M 343.773438 372.765625 C 345.175781 374.511719 347.625 372.035156 346.234375 370.304688 C 329.707031 349.753906 311.796875 330.339844 292.640625 312.210938 C 291.015625 310.671875 288.546875 313.128906 290.179688 314.671875 C 309.335938 332.800781 327.246094 352.214844 343.773438 372.765625 Z M 555.914062 624.746094 C 534.292969 643.671875 510.949219 660.597656 486.234375 675.253906 C 479.261719 679.386719 472.183594 683.335938 465.011719 687.105469 C 463.027344 688.148438 464.785156 691.152344 466.769531 690.109375 C 492.378906 676.648438 516.714844 660.839844 539.445312 642.9375 C 545.890625 637.863281 552.199219 632.613281 558.375 627.207031 C 560.0625 625.726562 557.59375 623.273438 555.914062 624.746094 Z M 354.769531 685.699219 C 332.78125 672.871094 312.699219 656.984375 295.148438 638.546875 C 293.601562 636.921875 291.140625 639.386719 292.6875 641.011719 C 310.425781 659.648438 330.785156 675.738281 353.011719 688.703125 C 354.953125 689.835938 356.707031 686.828125 354.769531 685.699219 Z M 354.769531 685.699219 " fill-opacity="1" fill-rule="nonzero"/></svg>