<svg xmlns="http://www.w3.org/2000/svg" xmlns:xlink="http://www.w3.org/1999/xlink" width="1080" zoomAndPan="magnify" viewBox="0 0 810 809.999993" height="1080" preserveAspectRatio="xMidYMid meet" version="1.0"><defs><clipPath id="df7435aac2"><path d="M 204.195312 35.628906 L 605.445312 35.628906 L 605.445312 774 L 204.195312 774 Z M 204.195312 35.628906 " clip-rule="nonzero"/></clipPath></defs><path fill="#eeecde" d="M 383.542969 325.171875 C 366.546875 236.285156 381.882812 167.550781 420.710938 85.816406 C 435.03125 125.402344 434.203125 169.234375 425.253906 210.375 C 416.304688 251.511719 399.605469 290.496094 382.527344 328.972656 Z M 420.558594 600.042969 C 421.707031 594.089844 423.019531 588.167969 424.464844 582.285156 C 423.53125 583.085938 422.59375 583.890625 421.660156 584.695312 Z M 424.464844 582.285156 C 436.046875 572.339844 447.628906 562.398438 459.207031 552.453125 C 482.003906 532.882812 505.007812 513.089844 522.863281 488.914062 C 547.636719 455.378906 561.550781 413.941406 562.050781 372.238281 C 494.128906 423.871094 444.832031 499.425781 424.464844 582.285156 Z M 337.945312 507.152344 C 307.796875 485.242188 269.410156 475.199219 242.902344 449 C 246.449219 479.140625 261.894531 506.882812 281.703125 529.863281 C 301.511719 552.839844 325.625 571.628906 349.566406 590.257812 C 369.050781 605.414062 389.867188 621.140625 414.378906 624.023438 L 418.246094 623.960938 C 398.648438 580.339844 376.609375 535.257812 337.945312 507.152344 Z M 337.945312 507.152344 " fill-opacity="1" fill-rule="nonzero"/><g clip-path="url(#df7435aac2)"><path fill="#eeecde" d="M 605.308594 530.164062 C 604.621094 562.035156 585.777344 591.324219 561.46875 611.921875 C 537.160156 632.523438 507.648438 645.796875 478.570312 658.808594 C 458.460938 667.800781 438.351562 676.796875 418.246094 685.792969 C 417.757812 689.375 417.25 692.953125 416.714844 696.53125 C 415.730469 703.039062 414.792969 709.554688 413.554688 716.023438 L 411.808594 725.742188 L 410.929688 730.601562 L 409.921875 735.4375 C 408.546875 741.875 407.308594 748.34375 405.820312 754.757812 C 404.421875 761.183594 402.683594 767.570312 397.46875 773.011719 C 396.242188 774.292969 394.210938 774.335938 392.929688 773.105469 C 392.519531 772.714844 392.238281 772.238281 392.082031 771.730469 L 392.054688 771.636719 C 389.871094 764.378906 391.164062 758.0625 392.796875 751.789062 C 394.277344 745.488281 395.507812 739.128906 396.875 732.800781 L 397.875 728.046875 L 398.753906 723.273438 L 400.492188 713.71875 C 401.726562 707.359375 402.664062 700.953125 403.648438 694.550781 C 403.738281 693.949219 403.820312 693.34375 403.914062 692.738281 L 402.90625 693.367188 C 358.445312 680.945312 312.289062 667.617188 277.886719 636.816406 C 264.773438 625.074219 253.8125 611.148438 243.386719 596.960938 C 230.664062 579.65625 218.632812 561.84375 207.320312 543.582031 C 288.582031 561.6875 361.585938 614.074219 405.023438 685.128906 C 408.175781 662.625 410.367188 639.980469 411.597656 617.28125 C 413.066406 591.417969 413.285156 565.472656 412.289062 539.566406 C 411.859375 528.382812 411.183594 517.210938 410.308594 506.050781 C 374.636719 483.722656 343.898438 454.257812 313.5 425.050781 C 282.417969 395.183594 249.820312 362.671875 240.890625 320.484375 C 312.632812 342.75 377.625 412.125 408.355469 484.476562 C 407.585938 476.996094 406.734375 469.523438 405.785156 462.0625 C 402.492188 436.328125 398.023438 410.738281 392.539062 385.359375 C 390.960938 377.992188 389.273438 370.648438 387.507812 363.320312 C 345.9375 351.757812 308.71875 326.859375 278.667969 295.808594 C 247.75 263.863281 224.019531 225.566406 204.390625 185.660156 C 273.152344 216.847656 342.359375 260.398438 377.351562 324.820312 C 375.929688 319.851562 374.476562 314.890625 372.972656 309.945312 C 367.320312 291.140625 361.089844 272.5 354.3125 254.054688 C 345.203125 245.882812 338.082031 232.84375 331.121094 223.882812 C 288.75 169.320312 260.464844 103.894531 249.738281 35.628906 C 290.625 50.925781 321.429688 86.777344 338.8125 126.855469 C 354.054688 162 355.621094 201.070312 357.25 239.582031 C 366.308594 261.773438 374.585938 284.296875 382.015625 307.113281 C 390.066406 332.09375 397.109375 357.410156 403.050781 383 C 406.5625 398.175781 409.664062 413.449219 412.378906 428.792969 C 417.851562 352.167969 444.863281 277.078125 490.03125 214.925781 C 500.96875 259.90625 493.160156 307.820312 476.429688 350.980469 C 461.472656 389.570312 439.699219 425.023438 417.332031 459.902344 C 417.363281 460.101562 417.394531 460.300781 417.421875 460.5 C 424.796875 512.566406 427.183594 565.378906 424.609375 617.964844 C 423.9375 630.929688 422.957031 643.875 421.667969 656.792969 C 422.785156 655.457031 423.917969 654.144531 425.058594 652.859375 C 473.789062 597.910156 536.339844 555.332031 605.308594 530.164062 Z M 605.308594 530.164062 " fill-opacity="1" fill-rule="nonzero"/></g><path fill="#eeecde" d="M 469.140625 308.335938 C 460.835938 335.40625 450.90625 361.964844 439.480469 387.871094 C 438.519531 390.050781 435.328125 388.160156 436.28125 386 C 439.503906 378.695312 442.605469 371.339844 445.578125 363.929688 C 456.0625 337.800781 464.988281 311.058594 472.335938 283.878906 C 472.957031 281.574219 476.527344 282.558594 475.90625 284.863281 C 473.78125 292.722656 471.53125 300.550781 469.140625 308.335938 Z M 300.089844 373.738281 C 294.421875 367.167969 288.757812 360.59375 283.09375 354.023438 C 281.53125 352.214844 278.921875 354.847656 280.472656 356.644531 C 300.34375 379.691406 320.214844 402.738281 340.082031 425.785156 C 345.75 432.355469 351.414062 438.925781 357.078125 445.5 C 358.640625 447.308594 361.25 444.675781 359.699219 442.878906 C 339.828125 419.832031 319.957031 396.785156 300.089844 373.738281 Z M 318.941406 164.671875 C 322.253906 172.644531 325.570312 180.617188 328.882812 188.585938 C 329.785156 190.757812 333.367188 189.804688 332.453125 187.601562 C 320.832031 159.644531 309.210938 131.6875 297.589844 103.730469 C 294.277344 95.757812 290.964844 87.789062 287.652344 79.816406 C 286.75 77.644531 283.164062 78.597656 284.082031 80.800781 C 295.699219 108.757812 307.320312 136.714844 318.941406 164.671875 Z M 326.449219 308.433594 C 327.941406 310.292969 330.546875 307.65625 329.066406 305.8125 C 311.488281 283.929688 292.4375 263.257812 272.0625 243.953125 C 270.335938 242.316406 267.710938 244.929688 269.445312 246.574219 C 289.820312 265.878906 308.871094 286.550781 326.449219 308.433594 Z M 552.085938 576.761719 C 529.089844 596.914062 504.261719 614.9375 477.972656 630.546875 C 470.558594 634.949219 463.03125 639.148438 455.402344 643.164062 C 453.292969 644.273438 455.164062 647.476562 457.273438 646.363281 C 484.511719 632.03125 510.394531 615.195312 534.570312 596.136719 C 541.425781 590.726562 548.136719 585.136719 554.703125 579.382812 C 556.5 577.808594 553.871094 575.195312 552.085938 576.761719 Z M 338.144531 641.667969 C 314.757812 628.007812 293.398438 611.089844 274.730469 591.460938 C 273.082031 589.726562 270.46875 592.351562 272.113281 594.082031 C 290.980469 613.925781 312.632812 631.058594 336.277344 644.867188 C 338.339844 646.074219 340.203125 642.871094 338.144531 641.667969 Z M 338.144531 641.667969 " fill-opacity="1" fill-rule="nonzero"/></svg>