<svg xmlns="http://www.w3.org/2000/svg" xmlns:xlink="http://www.w3.org/1999/xlink" width="1080" zoomAndPan="magnify" viewBox="0 0 810 809.999993" height="1080" preserveAspectRatio="xMidYMid meet" version="1.0"><defs><clipPath id="aa9883ed04"><path d="M 229 116.578125 L 585 116.578125 L 585 771 L 229 771 Z M 229 116.578125 " clip-rule="nonzero"/></clipPath></defs><path fill="#eeecde" d="M 388.0625 373.195312 C 372.976562 294.414062 386.589844 233.496094 421.0625 161.058594 C 433.777344 196.144531 433.042969 234.992188 425.097656 271.449219 C 417.152344 307.910156 402.324219 342.464844 387.164062 376.566406 Z M 420.929688 616.8125 C 421.949219 611.535156 423.113281 606.289062 424.398438 601.074219 C 423.566406 601.785156 422.738281 602.496094 421.90625 603.210938 Z M 424.398438 601.074219 C 434.679688 592.261719 444.960938 583.449219 455.246094 574.636719 C 475.484375 557.289062 495.90625 539.746094 511.761719 518.320312 C 533.753906 488.597656 546.109375 451.871094 546.550781 414.914062 C 486.246094 460.671875 442.480469 527.636719 424.398438 601.074219 Z M 347.582031 534.484375 C 320.816406 515.066406 286.734375 506.164062 263.199219 482.945312 C 266.347656 509.660156 280.0625 534.246094 297.648438 554.613281 C 315.234375 574.980469 336.644531 591.632812 357.902344 608.140625 C 375.199219 621.574219 393.683594 635.511719 415.441406 638.066406 L 418.875 638.011719 C 401.476562 599.347656 381.910156 559.394531 347.582031 534.484375 Z M 347.582031 534.484375 " fill-opacity="1" fill-rule="nonzero"/><g clip-path="url(#aa9883ed04)"><path fill="#eeecde" d="M 584.957031 554.878906 C 584.347656 583.128906 567.617188 609.085938 546.035156 627.34375 C 524.453125 645.597656 498.25 657.367188 472.433594 668.894531 C 454.582031 676.867188 436.726562 684.839844 418.875 692.8125 C 418.441406 695.988281 417.992188 699.160156 417.519531 702.328125 C 416.644531 708.097656 415.808594 713.875 414.710938 719.605469 L 413.160156 728.222656 L 412.378906 732.527344 L 411.484375 736.8125 C 410.265625 742.519531 409.167969 748.253906 407.84375 753.9375 C 406.601562 759.632812 405.058594 765.292969 400.429688 770.117188 C 399.339844 771.25 397.535156 771.285156 396.398438 770.199219 C 396.035156 769.851562 395.785156 769.425781 395.648438 768.976562 L 395.625 768.898438 C 393.683594 762.460938 394.832031 756.867188 396.28125 751.304688 C 397.597656 745.71875 398.6875 740.082031 399.902344 734.476562 L 400.792969 730.261719 L 401.570312 726.03125 L 403.113281 717.5625 C 404.207031 711.925781 405.042969 706.246094 405.914062 700.574219 C 405.996094 700.039062 406.070312 699.503906 406.148438 698.96875 L 405.257812 699.527344 C 365.78125 688.515625 324.804688 676.703125 294.257812 649.402344 C 282.617188 639 272.882812 626.65625 263.628906 614.082031 C 252.335938 598.742188 241.648438 582.957031 231.605469 566.769531 C 303.753906 582.820312 368.570312 629.25 407.136719 692.226562 C 409.933594 672.277344 411.878906 652.210938 412.972656 632.09375 C 414.277344 609.167969 414.46875 586.171875 413.585938 563.214844 C 413.207031 553.300781 412.605469 543.398438 411.828125 533.507812 C 380.160156 513.71875 352.867188 487.605469 325.878906 461.71875 C 298.28125 435.246094 269.339844 406.433594 261.414062 369.039062 C 325.109375 388.777344 382.8125 450.261719 410.09375 514.386719 C 409.410156 507.757812 408.65625 501.136719 407.8125 494.523438 C 404.890625 471.714844 400.921875 449.035156 396.054688 426.539062 C 394.648438 420.011719 393.152344 413.5 391.585938 407.007812 C 354.675781 396.757812 321.632812 374.691406 294.953125 347.171875 C 267.5 318.859375 246.433594 284.914062 229.007812 249.550781 C 290.054688 277.1875 351.503906 315.785156 382.570312 372.886719 C 381.304688 368.480469 380.015625 364.085938 378.679688 359.703125 C 373.664062 343.035156 368.128906 326.515625 362.113281 310.164062 C 354.027344 302.925781 347.703125 291.367188 341.523438 283.421875 C 303.90625 235.066406 278.792969 177.078125 269.265625 116.578125 C 305.570312 130.136719 332.917969 161.910156 348.351562 197.429688 C 361.882812 228.578125 363.273438 263.207031 364.722656 297.339844 C 372.765625 317.007812 380.113281 336.96875 386.710938 357.191406 C 393.855469 379.332031 400.113281 401.769531 405.382812 424.449219 C 408.503906 437.898438 411.257812 451.433594 413.667969 465.035156 C 418.527344 397.121094 442.507812 330.570312 482.613281 275.484375 C 492.320312 315.351562 485.386719 357.816406 470.535156 396.070312 C 457.253906 430.273438 437.925781 461.691406 418.066406 492.605469 C 418.089844 492.78125 418.117188 492.957031 418.144531 493.136719 C 424.691406 539.28125 426.8125 586.089844 424.523438 632.699219 C 423.929688 644.1875 423.058594 655.664062 421.914062 667.109375 C 422.90625 665.925781 423.914062 664.761719 424.925781 663.625 C 468.191406 614.921875 523.726562 577.183594 584.957031 554.878906 Z M 584.957031 554.878906 " fill-opacity="1" fill-rule="nonzero"/></g><path fill="#eeecde" d="M 464.0625 358.273438 C 456.691406 382.269531 447.871094 405.804688 437.730469 428.765625 C 436.875 430.699219 434.042969 429.023438 434.890625 427.105469 C 437.75 420.632812 440.503906 414.113281 443.144531 407.546875 C 452.453125 384.390625 460.375 360.6875 466.898438 336.597656 C 467.449219 334.554688 470.621094 335.425781 470.070312 337.472656 C 468.183594 344.4375 466.183594 351.375 464.0625 358.273438 Z M 313.972656 416.238281 C 308.941406 410.414062 303.910156 404.589844 298.882812 398.765625 C 297.496094 397.164062 295.179688 399.496094 296.554688 401.089844 C 314.199219 421.515625 331.839844 441.941406 349.480469 462.367188 C 354.511719 468.191406 359.539062 474.015625 364.570312 479.839844 C 365.957031 481.445312 368.273438 479.113281 366.894531 477.519531 C 349.253906 457.09375 331.613281 436.667969 313.972656 416.238281 Z M 330.710938 230.945312 C 333.652344 238.011719 336.59375 245.078125 339.535156 252.140625 C 340.335938 254.066406 343.519531 253.222656 342.707031 251.269531 C 332.390625 226.492188 322.070312 201.710938 311.753906 176.933594 C 308.8125 169.871094 305.871094 162.804688 302.929688 155.738281 C 302.128906 153.816406 298.945312 154.660156 299.757812 156.613281 C 310.074219 181.390625 320.394531 206.167969 330.710938 230.945312 Z M 337.375 358.363281 C 338.699219 360.011719 341.011719 357.671875 339.699219 356.039062 C 324.09375 336.644531 307.179688 318.320312 289.089844 301.214844 C 287.554688 299.761719 285.226562 302.078125 286.765625 303.535156 C 304.855469 320.644531 321.769531 338.96875 337.375 358.363281 Z M 537.703125 596.179688 C 517.285156 614.042969 495.246094 630.015625 471.902344 643.847656 C 465.324219 647.75 458.636719 651.472656 451.867188 655.03125 C 449.992188 656.015625 451.652344 658.851562 453.523438 657.867188 C 477.710938 645.164062 500.691406 630.242188 522.152344 613.347656 C 528.242188 608.558594 534.199219 603.601562 540.03125 598.5 C 541.625 597.105469 539.292969 594.789062 537.703125 596.179688 Z M 347.757812 653.703125 C 326.996094 641.597656 308.03125 626.605469 291.457031 609.207031 C 289.996094 607.671875 287.671875 609.996094 289.132812 611.527344 C 305.886719 629.117188 325.109375 644.304688 346.101562 656.542969 C 347.929688 657.609375 349.589844 654.769531 347.757812 653.703125 Z M 347.757812 653.703125 " fill-opacity="1" fill-rule="nonzero"/></svg>