<svg xmlns="http://www.w3.org/2000/svg" xmlns:xlink="http://www.w3.org/1999/xlink" width="1080" zoomAndPan="magnify" viewBox="0 0 810 809.999993" height="1080" preserveAspectRatio="xMidYMid meet" version="1.0"><defs><clipPath id="fe71034a93"><path d="M 85.441406 95.097656 L 724.441406 95.097656 L 724.441406 715.277344 L 85.441406 715.277344 Z M 85.441406 95.097656 " clip-rule="nonzero"/></clipPath></defs><g clip-path="url(#fe71034a93)"><path fill="#eeecde" d="M 146.910156 537.351562 L 217.289062 686.058594 L 155.820312 715.1875 L 85.441406 566.480469 Z M 308.085938 479.351562 C 309.464844 479.414062 310.753906 480.085938 312.132812 480.152344 C 314.054688 480.4375 315.996094 480.917969 317.882812 481.609375 L 516.996094 553.867188 C 521.273438 555.417969 524.96875 557.863281 527.949219 560.917969 L 528.925781 562.070312 L 528.816406 562.296875 L 532.195312 566.621094 C 533.121094 568.089844 533.867188 569.648438 534.453125 571.269531 L 534.878906 572.9375 L 535.835938 577.726562 L 536.109375 581.425781 C 536.101562 583.152344 535.960938 584.867188 535.699219 586.546875 C 533.621094 599.96875 522.289062 608.242188 506.523438 610.835938 L 504.28125 610.710938 L 504.269531 610.742188 L 345.546875 554.15625 C 342.761719 553.160156 339.765625 554.003906 337.886719 556.054688 L 336.425781 558.488281 L 336.023438 561.292969 C 336.179688 564.074219 337.96875 566.617188 340.753906 567.613281 L 498.675781 623.914062 L 498.730469 623.933594 L 501.460938 624.90625 L 502.289062 625.027344 L 506.410156 625.835938 L 508.566406 625.996094 C 530.417969 622.386719 547.742188 607.792969 550.792969 588.054688 C 551.292969 584.832031 551.386719 581.625 551.109375 578.472656 L 550.453125 575.28125 C 558.304688 572.394531 565.125 572.613281 572.976562 569.730469 C 576.550781 568.417969 580.460938 568.699219 584.675781 566.398438 L 588.070312 564.40625 L 666.988281 513.308594 C 674.070312 507.566406 688.996094 501.742188 697.523438 501.015625 C 700.71875 500.746094 703.613281 500.796875 706.285156 501.34375 C 710.734375 502.253906 714.566406 504.53125 718.152344 508.957031 L 718.609375 509.582031 C 720.042969 511.351562 721.1875 513.15625 722.070312 514.976562 C 728.226562 527.726562 721.324219 541.371094 708.933594 551.421875 L 615.019531 628.664062 C 611.476562 631.535156 606.855469 634.28125 602.738281 635.46875 L 600.652344 636.292969 L 599.132812 637.007812 C 557.832031 652.183594 521.867188 667.058594 477.917969 681.007812 L 472.171875 683.070312 C 458.136719 690.300781 441.347656 692.179688 425.125 686.984375 L 329.246094 656.277344 L 329.261719 656.613281 L 323.800781 655.667969 C 317.140625 654.773438 296.398438 657.128906 290.570312 658.070312 L 247.996094 670.117188 L 246.488281 670.683594 L 231.097656 677.976562 L 161.71875 531.394531 L 163.1875 530.695312 C 163.152344 530.625 163.640625 530.492188 163.605469 530.421875 L 233.875 496.941406 L 240.300781 493.203125 C 252.40625 486.886719 263.113281 483.542969 274.238281 482.117188 L 275.234375 482.023438 L 275.453125 481.941406 C 276.050781 481.765625 276.6875 481.652344 277.339844 481.601562 L 304.328125 479.515625 C 304.980469 479.464844 305.617188 479.484375 306.25 479.5625 Z M 491.332031 301.109375 C 490.210938 301.066406 489.058594 301.082031 487.878906 301.167969 C 469.019531 302.515625 455.488281 315.582031 458.238281 338.347656 C 462.277344 371.738281 514.808594 407.644531 518.371094 407.644531 C 521.941406 407.644531 574.472656 371.738281 578.507812 338.347656 C 581.257812 315.582031 567.726562 302.515625 548.863281 301.167969 C 530.003906 299.8125 518.371094 315.839844 518.371094 315.839844 C 518.371094 315.839844 508.152344 301.753906 491.332031 301.109375 Z M 380.339844 246.738281 L 656.410156 246.738281 L 656.410156 426.367188 C 656.410156 441.105469 645.382812 453.050781 631.78125 453.050781 L 404.964844 453.050781 C 391.363281 453.050781 380.339844 441.105469 380.335938 426.367188 Z M 471.964844 120.667969 C 470.605469 120.671875 469.328125 120.871094 468.171875 121.253906 L 467.933594 121.382812 L 467.8125 121.394531 C 463.042969 122.179688 457.820312 124.753906 453.277344 128.929688 C 447.308594 134.410156 443.992188 141.289062 443.960938 147.050781 L 444.09375 148.769531 L 443.992188 149.4375 L 444.109375 150.144531 L 444.027344 152.367188 C 444.789062 164.554688 463.632812 182.457031 506.441406 177.765625 C 503.816406 139.070312 486.601562 122.71875 474.347656 120.851562 C 473.527344 120.726562 472.734375 120.664062 471.964844 120.667969 Z M 566.785156 112.089844 C 565.949219 112.085938 565.085938 112.152344 564.195312 112.285156 C 550.859375 114.320312 532.121094 132.117188 529.265625 174.230469 C 575.859375 179.339844 596.367188 159.851562 597.195312 146.585938 L 597.105469 144.167969 L 597.230469 143.398438 L 597.121094 142.671875 L 597.269531 140.804688 C 597.234375 134.53125 593.621094 127.046875 587.128906 121.082031 C 582.183594 116.535156 576.5 113.734375 571.308594 112.878906 L 571.175781 112.867188 L 570.917969 112.726562 C 569.660156 112.308594 568.269531 112.089844 566.785156 112.089844 Z M 570.152344 95.144531 C 572.316406 95.152344 574.34375 95.46875 576.179688 96.078125 L 576.558594 96.285156 L 576.753906 96.296875 C 584.328125 97.546875 592.628906 101.636719 599.847656 108.273438 C 609.328125 116.984375 614.597656 127.910156 614.648438 137.066406 L 614.433594 139.796875 L 614.597656 140.855469 L 614.414062 141.980469 L 614.542969 145.511719 C 613.785156 157.613281 601.808594 173.265625 576.324219 181.480469 L 572.605469 182.511719 L 655.832031 182.511719 C 666.835938 182.511719 675.757812 191.4375 675.757812 202.449219 L 675.757812 217.257812 C 675.757812 228.269531 666.835938 237.195312 655.832031 237.195312 L 380.914062 237.195312 C 369.90625 237.195312 360.988281 228.269531 360.988281 217.257812 L 360.988281 202.449219 C 360.988281 191.4375 369.90625 182.511719 380.914062 182.511719 L 458.019531 182.511719 L 456.550781 181.96875 C 437.691406 174.035156 428.714844 161.386719 428.085938 151.375 L 428.207031 148.132812 L 428.039062 147.101562 L 428.1875 146.125 L 427.988281 143.621094 C 428.035156 135.207031 432.878906 125.164062 441.589844 117.164062 C 448.226562 111.066406 455.847656 107.308594 462.808594 106.160156 L 462.988281 106.148438 L 463.335938 105.957031 C 465.023438 105.398438 466.886719 105.105469 468.875 105.101562 C 469.996094 105.097656 471.15625 105.1875 472.347656 105.367188 C 488.003906 107.753906 509.203125 126.328125 516.824219 168.777344 L 517.066406 170.394531 L 517.855469 165.070312 C 526.054688 118.429688 549.257812 98.042969 566.371094 95.4375 C 567.667969 95.238281 568.929688 95.144531 570.152344 95.144531 Z M 570.152344 95.144531 " fill-opacity="1" fill-rule="evenodd"/></g></svg>