<svg xmlns="http://www.w3.org/2000/svg" xmlns:xlink="http://www.w3.org/1999/xlink" width="1080" zoomAndPan="magnify" viewBox="0 0 810 809.999993" height="1080" preserveAspectRatio="xMidYMid meet" version="1.0"><defs><clipPath id="55730f4e32"><path d="M 314 42.308594 L 337 42.308594 L 337 88 L 314 88 Z M 314 42.308594 " clip-rule="nonzero"/></clipPath><clipPath id="e22dd5297c"><path d="M 65.429688 358 L 103 358 L 103 377 L 65.429688 377 Z M 65.429688 358 " clip-rule="nonzero"/></clipPath><clipPath id="a6166b3e84"><path d="M 83 51 L 744.929688 51 L 744.929688 767.449219 L 83 767.449219 Z M 83 51 " clip-rule="nonzero"/></clipPath></defs><path fill="#eeecde" d="M 619.21875 487.148438 C 608.003906 488.550781 596.242188 482.582031 589.941406 474.023438 C 584.863281 467.121094 583.382812 458.203125 588.917969 451.28125 C 597.121094 447.855469 603.976562 451.871094 607.734375 459.175781 C 612.671875 468.753906 609.753906 478.925781 619.21875 487.148438 " fill-opacity="1" fill-rule="evenodd"/><path fill="#eeecde" d="M 679.472656 484.785156 C 669.695312 489.785156 656.964844 488.238281 648.359375 482.496094 C 641.414062 477.875 637.109375 470.210938 639.871094 462.042969 C 646.226562 456.195312 653.828125 457.605469 659.691406 463.019531 C 667.386719 470.140625 668.101562 480.421875 679.472656 484.785156 " fill-opacity="1" fill-rule="evenodd"/><path fill="#eeecde" d="M 662.113281 411.339844 C 653.296875 404.894531 640.574219 404.410156 631.234375 408.695312 C 623.691406 412.144531 618.253906 418.976562 619.683594 427.421875 C 624.996094 434.167969 632.675781 433.984375 639.28125 429.585938 C 647.945312 423.800781 650.273438 413.839844 662.113281 411.339844 " fill-opacity="1" fill-rule="evenodd"/><path fill="#eeecde" d="M 713.644531 440.714844 C 707.90625 432.035156 696.683594 427.394531 686.929688 428.117188 C 679.046875 428.695312 671.910156 433 670.382812 441.023438 C 672.902344 448.8125 679.820312 451.195312 687.191406 449.449219 C 696.847656 447.160156 702.230469 439.023438 713.644531 440.714844 " fill-opacity="1" fill-rule="evenodd"/><path fill="#eeecde" d="M 596.664062 363.253906 C 587.179688 365.707031 579.609375 374.25 577.28125 383.15625 C 575.394531 390.339844 577.046875 397.984375 583.722656 401.796875 C 591.410156 401.941406 595.640625 396.515625 596.335938 389.441406 C 597.253906 380.15625 591.660156 372.878906 596.664062 363.253906 " fill-opacity="1" fill-rule="evenodd"/><path fill="#eeecde" d="M 656.308594 346.507812 C 645.347656 343.84375 633.003906 348.410156 625.789062 356.1875 C 619.972656 362.453125 617.480469 371.128906 622.183594 378.628906 C 629.921875 382.964844 637.183594 379.75 641.742188 372.945312 C 647.734375 363.996094 645.992188 353.574219 656.308594 346.507812 " fill-opacity="1" fill-rule="evenodd"/><path fill="#eeecde" d="M 716.234375 421.300781 C 705.125 426.003906 691.3125 423.308594 682.351562 416.339844 C 675.117188 410.722656 670.992188 402 674.671875 393.273438 C 682.089844 387.367188 690.308594 389.507812 696.296875 395.90625 C 704.160156 404.304688 704.132812 415.617188 716.234375 421.300781 " fill-opacity="1" fill-rule="evenodd"/><path fill="#eeecde" d="M 725.601562 344.328125 C 714.660156 337.117188 699.371094 337.289062 688.433594 342.976562 C 679.597656 347.550781 673.492188 356.0625 675.695312 366.101562 C 682.457031 373.863281 696.460938 371.035156 703.125 364.171875 C 710.207031 356.882812 713.519531 347.503906 725.601562 344.328125 " fill-opacity="1" fill-rule="evenodd"/><path fill="#eeecde" d="M 658.800781 274.964844 C 650.8125 269.308594 639.417969 269.03125 631.089844 272.976562 C 624.375 276.164062 619.597656 282.371094 620.976562 289.90625 C 625.824219 295.890625 632.695312 295.621094 638.566406 291.605469 C 646.265625 286.316406 648.214844 277.351562 658.800781 274.964844 " fill-opacity="1" fill-rule="evenodd"/><path fill="#eeecde" d="M 630.90625 341.324219 C 621.664062 347.792969 608.507812 348.03125 598.953125 343.417969 C 591.238281 339.703125 585.769531 332.523438 587.410156 323.835938 C 593.042969 316.980469 600.964844 317.339844 607.695312 322.011719 C 616.535156 328.160156 618.714844 338.496094 630.90625 341.324219 " fill-opacity="1" fill-rule="evenodd"/><path fill="#eeecde" d="M 672.179688 339.730469 C 663.46875 343.5625 652.53125 341.585938 645.386719 336.191406 C 639.617188 331.835938 636.265625 324.992188 639.078125 318.074219 C 644.875 313.324219 651.363281 314.925781 656.164062 319.917969 C 662.460938 326.449219 662.558594 335.378906 672.179688 339.730469 " fill-opacity="1" fill-rule="evenodd"/><path fill="#eeecde" d="M 691.074219 274.820312 C 681.664062 272.136719 670.808594 275.671875 664.277344 282.167969 C 659.015625 287.40625 656.5625 294.839844 660.386719 301.5 C 666.953125 305.523438 673.339844 302.988281 677.53125 297.234375 C 683.035156 289.695312 681.886719 280.59375 691.074219 274.820312 " fill-opacity="1" fill-rule="evenodd"/><path fill="#eeecde" d="M 719.980469 266.355469 C 710.214844 266.957031 701.15625 273.894531 697.167969 282.1875 C 693.941406 288.886719 694.113281 296.703125 699.929688 301.722656 C 707.464844 303.324219 712.652344 298.808594 714.679688 291.992188 C 717.355469 283.054688 713.25 274.851562 719.980469 266.355469 " fill-opacity="1" fill-rule="evenodd"/><path fill="#eeecde" d="M 719.265625 252.457031 C 717.375 259.746094 710.796875 265.535156 703.949219 267.320312 C 698.421875 268.769531 692.53125 267.484375 689.613281 262.359375 C 689.515625 256.445312 693.691406 253.199219 699.136719 252.671875 C 706.277344 251.976562 711.859375 256.289062 719.265625 252.457031 " fill-opacity="1" fill-rule="evenodd"/><path fill="#eeecde" d="M 500.933594 353.507812 C 491.828125 352.65625 482.464844 357.773438 477.597656 364.855469 C 473.675781 370.582031 472.703125 377.820312 477.355469 383.28125 C 484.078125 385.851562 489.519531 382.414062 492.375 376.410156 C 496.125 368.542969 493.496094 360.386719 500.933594 353.507812 " fill-opacity="1" fill-rule="evenodd"/><path fill="#eeecde" d="M 496.242188 228.820312 C 488.292969 236.726562 485.769531 249.542969 488.628906 259.695312 C 490.929688 267.890625 496.992188 274.484375 505.804688 274.398438 C 513.480469 270.074219 514.523438 262.273438 511.117188 254.859375 C 506.632812 245.160156 496.886719 241.222656 496.242188 228.820312 " fill-opacity="1" fill-rule="evenodd"/><path fill="#eeecde" d="M 493.835938 195.886719 C 496.695312 208.289062 491.382812 222.148438 482.503906 230.191406 C 475.339844 236.675781 465.515625 239.371094 457.113281 233.964844 C 452.320312 225.171875 456.050781 217.042969 463.796875 211.988281 C 473.96875 205.335938 485.722656 207.429688 493.835938 195.886719 " fill-opacity="1" fill-rule="evenodd"/><path fill="#eeecde" d="M 490.378906 148.273438 C 490.222656 160.183594 482.300781 171.582031 472.441406 176.910156 C 464.492188 181.214844 454.957031 181.464844 448.523438 174.691406 C 446.140625 165.636719 451.335938 159.074219 459.496094 156.207031 C 470.21875 152.441406 480.4375 156.960938 490.378906 148.273438 " fill-opacity="1" fill-rule="evenodd"/><path fill="#eeecde" d="M 536.054688 113.601562 C 532.085938 127 519.5 137.355469 506.664062 140.242188 C 496.316406 142.566406 485.46875 139.828125 480.371094 130.117188 C 480.542969 119.132812 488.503906 113.371094 498.644531 112.734375 C 511.957031 111.894531 522.058594 120.242188 536.054688 113.601562 " fill-opacity="1" fill-rule="evenodd"/><path fill="#eeecde" d="M 474.042969 262.410156 C 474.855469 272.988281 468.730469 283.75 460.40625 289.261719 C 453.691406 293.71875 445.25 294.707031 439 289.203125 C 436.152344 281.355469 440.238281 275.109375 447.257812 271.90625 C 456.472656 267.707031 465.910156 270.914062 474.042969 262.410156 " fill-opacity="1" fill-rule="evenodd"/><path fill="#eeecde" d="M 510.59375 152.519531 C 501.515625 160.828125 498.164062 174.769531 500.820312 186.03125 C 502.972656 195.105469 509.328125 202.625 518.988281 202.921875 C 527.613281 198.539062 529.101562 190.027344 525.699219 181.765625 C 521.238281 170.90625 510.738281 166.15625 510.59375 152.519531 " fill-opacity="1" fill-rule="evenodd"/><path fill="#eeecde" d="M 577.832031 104.054688 C 563.1875 106.632812 550.707031 118.667969 546.101562 131.863281 C 542.390625 142.511719 543.976562 154.296875 553.625 160.859375 C 565.265625 161.996094 572.316406 154.285156 574.226562 143.660156 C 576.71875 129.703125 569.117188 118.03125 577.832031 104.054688 " fill-opacity="1" fill-rule="evenodd"/><path fill="#eeecde" d="M 591.238281 203.589844 C 591.167969 214.765625 583.808594 225.527344 574.59375 230.585938 C 567.15625 234.679688 558.222656 234.976562 552.148438 228.65625 C 549.828125 220.179688 554.667969 213.992188 562.316406 211.242188 C 572.351562 207.632812 581.964844 211.804688 591.238281 203.589844 " fill-opacity="1" fill-rule="evenodd"/><path fill="#eeecde" d="M 549.316406 70.574219 C 549.460938 81.460938 542.507812 92.078125 533.621094 97.195312 C 526.453125 101.316406 517.75 101.777344 511.703125 95.734375 C 509.289062 87.53125 513.886719 81.402344 521.277344 78.585938 C 530.992188 74.867188 540.429688 78.75 549.316406 70.574219 " fill-opacity="1" fill-rule="evenodd"/><path fill="#eeecde" d="M 487.0625 50.160156 C 479.628906 55.390625 475.839844 65.292969 476.71875 73.796875 C 477.433594 80.660156 481.375 86.777344 488.425781 87.898438 C 495.167969 85.515625 497.070312 79.414062 495.363281 73.035156 C 493.121094 64.65625 485.875 60.167969 487.0625 50.160156 " fill-opacity="1" fill-rule="evenodd"/><path fill="#eeecde" d="M 623.828125 115.039062 C 613.808594 113.359375 603.039062 118.253906 597.0625 125.707031 C 592.242188 131.710938 590.5625 139.664062 595.285156 146.082031 C 602.507812 149.46875 608.804688 146.109375 612.457031 139.710938 C 617.257812 131.292969 615.027344 122.058594 623.828125 115.039062 " fill-opacity="1" fill-rule="evenodd"/><path fill="#eeecde" d="M 607.125 173.792969 C 603.765625 182.527344 594.8125 188.773438 586.089844 190.019531 C 579.058594 191.023438 571.96875 188.609375 569.070312 181.863281 C 569.773438 174.546875 575.394531 171.121094 582.195312 171.226562 C 591.128906 171.371094 597.429688 177.488281 607.125 173.792969 " fill-opacity="1" fill-rule="evenodd"/><path fill="#eeecde" d="M 552.175781 275.824219 C 545.335938 281.972656 542.730469 292.371094 544.652344 300.804688 C 546.195312 307.601562 550.890625 313.265625 558.105469 313.554688 C 564.578125 310.339844 565.757812 303.980469 563.265625 297.785156 C 560.007812 289.648438 552.183594 286.019531 552.175781 275.824219 " fill-opacity="1" fill-rule="evenodd"/><path fill="#eeecde" d="M 596.421875 257.195312 C 593.265625 264.058594 585.730469 268.644531 578.640625 269.195312 C 572.902344 269.648438 567.3125 267.351562 565.320312 261.753906 C 566.269531 255.882812 570.972656 253.414062 576.457031 253.847656 C 583.65625 254.425781 588.417969 259.667969 596.421875 257.195312 " fill-opacity="1" fill-rule="evenodd"/><path fill="#eeecde" d="M 661.535156 201.929688 C 659.382812 213.097656 650.011719 222.496094 639.839844 225.855469 C 631.640625 228.570312 622.636719 227.21875 617.722656 219.757812 C 616.988281 210.835938 622.976562 205.539062 631.148438 204.207031 C 641.871094 202.460938 650.707031 208.425781 661.535156 201.929688 " fill-opacity="1" fill-rule="evenodd"/><path fill="#eeecde" d="M 682.464844 211.851562 C 671.890625 211.640625 661.527344 218.328125 656.492188 226.917969 C 652.4375 233.839844 651.925781 242.285156 657.757812 248.191406 C 665.726562 250.585938 671.714844 246.175781 674.507812 239.011719 C 678.175781 229.609375 674.457031 220.414062 682.464844 211.851562 " fill-opacity="1" fill-rule="evenodd"/><path fill="#eeecde" d="M 706.710938 217.980469 C 700.46875 217.855469 694.355469 221.792969 691.402344 226.851562 C 689.003906 230.941406 688.707031 235.914062 692.144531 239.398438 C 696.839844 240.808594 700.363281 238.203125 702.015625 233.984375 C 704.179688 228.441406 701.988281 223.027344 706.710938 217.980469 " fill-opacity="1" fill-rule="evenodd"/><path fill="#eeecde" d="M 541.648438 326.960938 C 538.082031 337.398438 527.84375 345.148438 517.636719 347 C 509.414062 348.507812 500.964844 345.996094 497.246094 338.1875 C 497.738281 329.550781 504.199219 325.265625 512.195312 325.082031 C 522.726562 324.847656 530.394531 331.742188 541.648438 326.960938 " fill-opacity="1" fill-rule="evenodd"/><path fill="#eeecde" d="M 644.429688 163.183594 C 634.46875 161.601562 623.808594 166.5625 617.945312 174.003906 C 613.203125 180.019531 611.617188 187.921875 616.351562 194.265625 C 623.554688 197.554688 629.785156 194.179688 633.359375 187.777344 C 638.042969 179.390625 635.746094 170.222656 644.429688 163.183594 " fill-opacity="1" fill-rule="evenodd"/><path fill="#eeecde" d="M 337.699219 196.523438 C 349.316406 204.417969 355.410156 219.628906 354.253906 232.785156 C 353.324219 243.402344 347.386719 252.949219 336.527344 254.871094 C 326.046875 251.347656 322.957031 241.976562 325.441406 232.054688 C 328.695312 219.0625 339.785156 211.957031 337.699219 196.523438 " fill-opacity="1" fill-rule="evenodd"/><path fill="#eeecde" d="M 305.445312 132.007812 C 314.148438 138.378906 318.410156 150.203125 317.164062 160.269531 C 316.15625 168.398438 311.339844 175.550781 302.953125 176.726562 C 295.023438 173.746094 292.910156 166.457031 295.070312 158.929688 C 297.929688 149.054688 306.625 143.898438 305.445312 132.007812 " fill-opacity="1" fill-rule="evenodd"/><path fill="#eeecde" d="M 219.5 117.058594 C 228.578125 119.257812 235.921875 127.296875 238.277344 135.761719 C 240.171875 142.585938 238.703125 149.902344 232.394531 153.640625 C 225.0625 153.878906 220.949219 148.773438 220.175781 142.027344 C 219.171875 133.1875 224.40625 126.179688 219.5 117.058594 " fill-opacity="1" fill-rule="evenodd"/><path fill="#eeecde" d="M 234.132812 202.902344 C 238.304688 213.945312 249.550781 221.910156 260.542969 223.550781 C 269.410156 224.882812 278.382812 221.898438 282.089844 213.394531 C 281.261719 204.160156 274.199219 199.785156 265.613281 199.871094 C 254.339844 199.980469 246.34375 207.644531 234.132812 202.902344 " fill-opacity="1" fill-rule="evenodd"/><path fill="#eeecde" d="M 194.636719 186.910156 C 202.179688 195.074219 214.804688 198.066406 224.988281 195.617188 C 233.195312 193.648438 239.976562 187.875 240.210938 179.160156 C 236.21875 171.378906 228.503906 170.058594 221.046875 173.15625 C 211.242188 177.230469 206.972656 186.738281 194.636719 186.910156 " fill-opacity="1" fill-rule="evenodd"/><path fill="#eeecde" d="M 174.960938 153.476562 C 176.730469 160.886719 183.269531 166.902344 190.164062 168.851562 C 195.730469 170.425781 201.707031 169.257812 204.789062 164.132812 C 205.019531 158.136719 200.847656 154.769531 195.351562 154.121094 C 188.128906 153.261719 182.390625 157.507812 174.960938 153.476562 " fill-opacity="1" fill-rule="evenodd"/><path fill="#eeecde" d="M 248.082031 102.839844 C 262.539062 106.007812 274.449219 118.476562 278.476562 131.796875 C 281.734375 142.539062 279.667969 154.1875 269.804688 160.308594 C 258.195312 160.976562 251.492188 153.011719 250.03125 142.367188 C 248.121094 128.390625 256.175781 117.105469 248.082031 102.839844 " fill-opacity="1" fill-rule="evenodd"/><path fill="#eeecde" d="M 205.628906 207.402344 C 216.175781 209.226562 225.171875 217.863281 228.492188 227.351562 C 231.179688 235.007812 230.046875 243.480469 223.121094 248.210938 C 214.757812 249.050781 209.675781 243.519531 208.285156 235.875 C 206.46875 225.847656 211.925781 217.441406 205.628906 207.402344 " fill-opacity="1" fill-rule="evenodd"/><path fill="#eeecde" d="M 159.265625 182.363281 C 170.722656 183.636719 180.960938 192.335938 185.171875 202.316406 C 188.5625 210.375 187.90625 219.574219 180.777344 225.113281 C 171.03125 225.375 165.988281 220.945312 164 212.816406 C 161.382812 202.152344 166.695312 192.75 159.265625 182.363281 " fill-opacity="1" fill-rule="evenodd"/><path fill="#eeecde" d="M 145.800781 253.65625 C 152.109375 260.84375 162.886719 263.691406 171.6875 261.820312 C 178.789062 260.304688 184.746094 255.5 185.144531 248.007812 C 180.699219 241.25 175.289062 239.929688 168.800781 242.417969 C 160.289062 245.703125 156.398438 253.78125 145.800781 253.65625 " fill-opacity="1" fill-rule="evenodd"/><path fill="#eeecde" d="M 187.453125 277.949219 C 193.257812 283.566406 202.527344 285.207031 209.8125 283.015625 C 215.683594 281.25 220.359375 276.789062 220.167969 270.460938 C 215.964844 265.082031 211.320312 264.339844 206.027344 266.898438 C 199.089844 270.246094 196.386719 277.320312 187.453125 277.949219 " fill-opacity="1" fill-rule="evenodd"/><path fill="#eeecde" d="M 230.335938 288.316406 C 239 294.339844 251.308594 294.523438 260.222656 290.179688 C 267.429688 286.664062 272.527344 279.9375 270.953125 271.808594 C 264.40625 265.769531 258.253906 265.777344 251.972656 270.179688 C 243.734375 275.949219 241.726562 285.640625 230.335938 288.316406 " fill-opacity="1" fill-rule="evenodd"/><path fill="#eeecde" d="M 270.933594 303.710938 C 278.640625 311.199219 290.996094 313.410156 300.683594 310.515625 C 308.507812 308.179688 314.746094 302.253906 314.515625 293.816406 C 308.921875 286.664062 302.742188 285.660156 295.699219 289.050781 C 286.457031 293.488281 282.835938 302.890625 270.933594 303.710938 " fill-opacity="1" fill-rule="evenodd"/><path fill="#eeecde" d="M 340.296875 314.539062 C 331.949219 325.921875 331.324219 342.359375 336.847656 354.414062 C 341.308594 364.144531 350.148438 371.179688 361.0625 369.34375 C 369.371094 360.785156 369.535156 352.570312 363.863281 344.039062 C 356.40625 332.839844 343.523438 329.839844 340.296875 314.539062 " fill-opacity="1" fill-rule="evenodd"/><path fill="#eeecde" d="M 363.882812 186.753906 C 361.621094 200.710938 368.539062 215.683594 378.96875 223.925781 C 387.382812 230.59375 398.472656 232.855469 407.386719 226.242188 C 410.914062 214.8125 407.320312 207.410156 398.355469 202.382812 C 386.601562 195.769531 373.734375 198.957031 363.882812 186.753906 " fill-opacity="1" fill-rule="evenodd"/><path fill="#eeecde" d="M 333.457031 155.355469 C 335.996094 164.535156 344.429688 171.757812 353.140625 173.890625 C 360.164062 175.617188 367.59375 173.878906 371.195312 167.335938 C 370.140625 159.351562 365.863281 155.820312 358.957031 155.25 C 349.90625 154.5 342.914062 160.066406 333.457031 155.355469 " fill-opacity="1" fill-rule="evenodd"/><path fill="#eeecde" d="M 293.605469 96.519531 C 293.363281 107.464844 300.269531 118.207031 309.144531 123.429688 C 316.320312 127.644531 325.0625 128.1875 331.195312 122.164062 C 332.675781 113.03125 329.140625 107.734375 321.722656 104.820312 C 311.996094 101.015625 302.460938 104.828125 293.605469 96.519531 " fill-opacity="1" fill-rule="evenodd"/><path fill="#eeecde" d="M 394.984375 103.941406 C 404.199219 108.457031 410.148438 118.832031 410.660156 128.464844 C 411.066406 136.246094 407.746094 143.746094 400.085938 146.234375 C 391.855469 143.515625 388.96875 138.292969 389.75 130.878906 C 390.773438 121.148438 398.074219 114.875 394.984375 103.941406 " fill-opacity="1" fill-rule="evenodd"/><path fill="#eeecde" d="M 391.199219 54.367188 C 397.253906 67.464844 394.558594 84.078125 386.570312 95.050781 C 380.140625 103.910156 369.851562 109.164062 359.277344 105.109375 C 352.679688 94.847656 354.167969 86.578125 361.585938 79.171875 C 371.339844 69.453125 384.863281 69.058594 391.199219 54.367188 " fill-opacity="1" fill-rule="evenodd"/><g clip-path="url(#55730f4e32)"><path fill="#eeecde" d="M 332.734375 42.3125 C 322.640625 46.585938 315.675781 57.28125 314.5625 67.511719 C 313.664062 75.765625 316.757812 83.960938 324.765625 87.078125 C 333.707031 84.675781 337.089844 79.261719 336.691406 71.324219 C 336.179688 60.910156 328.78125 53.789062 332.734375 42.3125 " fill-opacity="1" fill-rule="evenodd"/></g><path fill="#eeecde" d="M 437.15625 50.003906 C 425.382812 58.277344 419.394531 73.953125 420.792969 87.40625 C 421.914062 98.265625 428.152344 107.9375 439.300781 109.730469 C 449.972656 105.949219 452.988281 96.296875 450.28125 86.199219 C 446.738281 72.9375 435.273438 65.84375 437.15625 50.003906 " fill-opacity="1" fill-rule="evenodd"/><path fill="#eeecde" d="M 291.875 317.261719 C 302.617188 319.261719 311.6875 328.179688 314.960938 337.90625 C 317.605469 345.753906 316.359375 354.394531 309.230469 359.144531 C 300.007812 358.707031 295.566406 354.179688 294.230469 346.363281 C 292.503906 336.101562 298.183594 327.589844 291.875 317.261719 " fill-opacity="1" fill-rule="evenodd"/><path fill="#eeecde" d="M 235.457031 299.878906 C 244.660156 302.40625 251.90625 310.851562 254.039062 319.558594 C 255.769531 326.597656 254.03125 334.019531 247.472656 337.628906 C 239.476562 336.574219 235.941406 332.300781 235.359375 325.398438 C 234.605469 316.324219 240.179688 309.335938 235.457031 299.878906 " fill-opacity="1" fill-rule="evenodd"/><path fill="#eeecde" d="M 197.515625 356.382812 C 196.695312 364.816406 201.410156 373.515625 207.96875 378.070312 C 213.261719 381.730469 219.972656 382.664062 225.054688 378.378906 C 226.734375 371.402344 224.300781 367.097656 218.746094 364.421875 C 211.453125 360.917969 203.871094 363.304688 197.515625 356.382812 " fill-opacity="1" fill-rule="evenodd"/><path fill="#eeecde" d="M 160.214844 332.453125 C 164.039062 340.824219 173.183594 346.429688 181.820312 347.125 C 188.785156 347.703125 195.605469 344.925781 198.039062 338.128906 C 195.816406 330.667969 191.199219 327.957031 184.523438 328.46875 C 175.773438 329.125 169.949219 335.503906 160.214844 332.453125 " fill-opacity="1" fill-rule="evenodd"/><path fill="#eeecde" d="M 135.882812 303.625 C 140.691406 312.128906 150.902344 317.203125 160.097656 317.15625 C 167.515625 317.117188 174.46875 313.546875 176.421875 306.125 C 173.378906 298.449219 168.238281 296 161.226562 297.15625 C 152.03125 298.671875 146.46875 305.949219 135.882812 303.625 " fill-opacity="1" fill-rule="evenodd"/><path fill="#eeecde" d="M 81.152344 302.128906 C 87.507812 308.042969 97.527344 309.628906 105.3125 307.136719 C 111.589844 305.109375 116.527344 300.214844 116.195312 293.410156 C 111.5625 287.71875 106.546875 287.011719 100.917969 289.871094 C 93.519531 293.613281 90.753906 301.277344 81.152344 302.128906 " fill-opacity="1" fill-rule="evenodd"/><path fill="#eeecde" d="M 142.972656 330.554688 C 152.445312 332.503906 160.339844 340.570312 163.0625 349.25 C 165.273438 356.246094 164.019531 363.871094 157.613281 367.957031 C 149.460938 367.425781 145.589844 363.320312 144.554688 356.382812 C 143.195312 347.261719 148.371094 339.820312 142.972656 330.554688 " fill-opacity="1" fill-rule="evenodd"/><path fill="#eeecde" d="M 112.863281 244.464844 C 122.117188 245.59375 130.347656 252.726562 133.660156 260.855469 C 136.335938 267.410156 135.726562 274.851562 129.894531 279.28125 C 122.011719 279.40625 117.964844 275.769531 116.417969 269.175781 C 114.390625 260.507812 118.777344 252.941406 112.863281 244.464844 " fill-opacity="1" fill-rule="evenodd"/><path fill="#eeecde" d="M 112.265625 310.371094 C 121.085938 312.464844 128.242188 320.234375 130.558594 328.429688 C 132.433594 335.050781 131.042969 342.15625 124.9375 345.792969 C 117.316406 345.058594 113.800781 341.121094 113.027344 334.585938 C 112.015625 326.007812 117.066406 319.191406 112.265625 310.371094 " fill-opacity="1" fill-rule="evenodd"/><g clip-path="url(#e22dd5297c)"><path fill="#eeecde" d="M 65.429688 365.386719 C 70.179688 373.003906 79.742188 377.25 88.175781 376.84375 C 94.984375 376.507812 101.214844 372.953125 102.714844 366.074219 C 99.613281 359.152344 94.800781 357.117188 88.417969 358.449219 C 80.042969 360.203125 75.234375 367.105469 65.429688 365.386719 " fill-opacity="1" fill-rule="evenodd"/></g><path fill="#eeecde" d="M 84.089844 397.769531 C 93.054688 406.707031 107.5625 409.496094 119.015625 406.246094 C 128.25 403.621094 135.6875 396.738281 135.542969 386.804688 C 129.074219 378.292969 121.820312 377.007812 113.472656 380.890625 C 102.519531 385.976562 98.105469 396.988281 84.089844 397.769531 " fill-opacity="1" fill-rule="evenodd"/><path fill="#eeecde" d="M 195.632812 409.101562 C 201.902344 404.671875 210.855469 404.480469 217.367188 407.597656 C 222.621094 410.105469 226.359375 414.980469 225.257812 420.898438 C 220.523438 425.328125 216.050781 425.347656 211.464844 422.179688 C 205.4375 418.019531 203.929688 410.992188 195.632812 409.101562 " fill-opacity="1" fill-rule="evenodd"/><path fill="#eeecde" d="M 275.898438 461.859375 C 286.824219 457.449219 294.511719 446.070312 295.894531 435.074219 C 297.023438 426.214844 293.84375 417.34375 285.289062 413.851562 C 276.074219 414.882812 271.882812 422.027344 272.160156 430.578125 C 272.519531 441.792969 280.351562 449.59375 275.898438 461.859375 " fill-opacity="1" fill-rule="evenodd"/><path fill="#eeecde" d="M 218.28125 479.050781 C 227.921875 477.371094 236.160156 469.457031 239.203125 460.761719 C 241.65625 453.761719 240.625 445.992188 234.277344 441.660156 C 226.617188 440.90625 221.964844 445.972656 220.699219 452.972656 C 219.027344 462.160156 224.03125 469.851562 218.28125 479.050781 " fill-opacity="1" fill-rule="evenodd"/><path fill="#eeecde" d="M 155.925781 467.902344 C 165.4375 470.25 176.167969 466.300781 182.457031 459.574219 C 187.539062 454.140625 189.710938 446.609375 185.644531 440.085938 C 178.933594 436.300781 172.625 439.082031 168.644531 444.980469 C 163.429688 452.730469 164.898438 461.785156 155.925781 467.902344 " fill-opacity="1" fill-rule="evenodd"/><path fill="#eeecde" d="M 122.871094 420.425781 C 126.890625 411.980469 136.289062 406.429688 145.066406 405.847656 C 152.15625 405.386719 159.042969 408.320312 161.410156 415.269531 C 160.15625 422.507812 154.292969 425.5 147.519531 424.875 C 138.625 424.054688 132.828125 417.480469 122.871094 420.425781 " fill-opacity="1" fill-rule="evenodd"/><path fill="#eeecde" d="M 557.691406 476.617188 C 545.316406 473.445312 535.4375 462.316406 532.375 450.703125 C 529.902344 441.332031 532.046875 431.351562 540.738281 426.371094 C 550.773438 426.15625 556.300781 433.234375 557.238281 442.460938 C 558.453125 454.582031 551.160156 464.0625 557.691406 476.617188 " fill-opacity="1" fill-rule="evenodd"/><g clip-path="url(#a6166b3e84)"><path fill="#eeecde" d="M 369.902344 475.886719 C 368.972656 494.050781 355.015625 518.191406 336.722656 522.542969 C 325.226562 525.285156 311.386719 524.667969 299.921875 528.742188 C 287.160156 533.277344 277.453125 539.589844 266.402344 541.742188 C 251.183594 542.609375 237.496094 532.589844 219.953125 530.332031 C 205.070312 529.289062 193.257812 536.296875 179.15625 535.816406 C 163.238281 534.359375 147.578125 516.117188 123.933594 529.398438 C 110.179688 537.128906 101.050781 548.730469 83.539062 546.953125 C 107.542969 552.804688 122.253906 531.171875 139.273438 533.132812 C 154.4375 535.4375 162.328125 546.394531 176.507812 549.867188 C 198.722656 554.867188 205.84375 543.0625 229.109375 555.109375 C 193.316406 564.992188 201.96875 579.675781 177.386719 584.171875 C 167.195312 585.679688 159.015625 583.265625 149.289062 580.890625 C 117.992188 572.859375 113.464844 594.085938 99.59375 583.824219 C 112.09375 595.851562 122.300781 576.816406 147.027344 587.40625 C 153.199219 590.378906 159.1875 592.675781 165.488281 594 C 152.117188 610.726562 150.304688 624.480469 125.722656 625.359375 C 153.769531 627.90625 157.324219 611.652344 171.109375 600.28125 C 181.664062 591.574219 184.050781 597.433594 198.046875 590.484375 C 204.722656 587.039062 209.085938 582.15625 215.425781 578.574219 C 234.152344 567.976562 257.101562 575.851562 277.164062 569.65625 C 292.320312 564.984375 305.320312 559.019531 321.894531 559.484375 C 308.277344 572.417969 301.503906 596.027344 298.695312 598.59375 C 295.679688 602.183594 292.597656 603.429688 288.242188 604.945312 C 280.554688 607.464844 274.796875 608.746094 267.351562 612.550781 C 259.769531 617.007812 252.476562 622.210938 243.511719 623.050781 C 229.410156 624.085938 221.035156 615.128906 207.957031 616.324219 C 200.433594 617.007812 194.957031 620.910156 190.988281 626.988281 C 187.09375 632.644531 183.074219 636.679688 179.675781 642.914062 C 175.503906 651.234375 179.222656 663.5625 165.660156 667.867188 C 181.242188 665.539062 179.8125 651.390625 184.371094 645.761719 C 188.378906 640.636719 193.179688 637.019531 197.746094 632.480469 C 201.253906 628.765625 208.34375 627.964844 213.046875 629.375 C 219.210938 631.207031 231.902344 640.984375 248.507812 640.695312 C 234.199219 663.917969 222.667969 650.011719 215.425781 665.78125 C 208.371094 681.136719 214.398438 684.199219 205.707031 691.042969 C 215.773438 685.617188 213.058594 675.800781 220.042969 668.339844 C 221.046875 666.921875 221.992188 665.792969 223.578125 665.019531 C 229.457031 662.742188 235.003906 664.613281 243.339844 661.285156 C 260.65625 653.628906 264.683594 635.617188 280.71875 632.335938 C 294.269531 629.558594 305.417969 631.285156 318.910156 620.242188 C 331.824219 609.671875 332.519531 599.402344 341.800781 591.171875 L 343.617188 618.03125 C 342.921875 624.179688 344.554688 633.226562 343.125 639.007812 C 342.167969 643.851562 336.066406 654.179688 333.816406 660.222656 C 328.589844 675.261719 323.390625 678.039062 306.769531 685.898438 C 300.78125 688.714844 296.367188 693.539062 286.667969 694.035156 C 279.839844 694.378906 273.734375 691.109375 267.082031 697.585938 C 259.921875 704.5625 260.859375 701.679688 259.679688 710.421875 L 256.589844 717.457031 C 263.621094 714.195312 260.164062 706.097656 265.488281 703.695312 L 274.429688 699.179688 C 279.394531 698.996094 282.011719 703.355469 298.5 701.40625 L 328.589844 691.339844 C 326.328125 704.980469 322.550781 700.375 317.644531 707.972656 C 315.773438 711.328125 313.867188 712.265625 312.121094 716.746094 L 310.246094 736.019531 C 310.121094 740.210938 309.105469 742.574219 306.277344 745.71875 C 314.941406 739.1875 312.304688 733.386719 315.558594 727.96875 C 319.789062 720.953125 312.785156 724.390625 324.859375 713.675781 C 328.484375 710.730469 331.554688 710.953125 336.140625 706.621094 C 342.507812 699.765625 343.984375 692.140625 347.347656 683.675781 C 352.03125 675.820312 355.113281 665.683594 359.003906 660.269531 C 371.339844 643.734375 369.039062 642.839844 373.582031 621.824219 C 376.894531 606.488281 370.527344 598.960938 387.375 575.457031 C 394.164062 597.105469 419.519531 622.539062 404.152344 655.570312 L 391.863281 673.050781 C 386.3125 678.445312 379.925781 683.386719 376.351562 690.394531 C 371.097656 701.8125 377.800781 721.570312 374.691406 729.503906 C 370.691406 739.6875 359.449219 736.175781 358.957031 751.269531 C 358.859375 754.4375 358.195312 756.078125 356.125 758.527344 C 362.386719 753 359.660156 748.894531 362.773438 745.382812 C 369.070312 738.289062 378.816406 742.488281 383.191406 726.289062 L 385.277344 710.355469 C 385.722656 709.332031 385.984375 707.226562 386.273438 704.980469 C 386.445312 712.816406 388.976562 717.835938 395.148438 724.601562 C 399.101562 728.828125 400.914062 729.226562 405.445312 731.878906 C 411.28125 738.210938 409.058594 737.949219 412.960938 743.269531 C 420.515625 753.316406 415.578125 749.679688 412.109375 760.015625 C 411.308594 762.632812 410.921875 764.851562 412.199219 767.449219 C 414.410156 751.484375 427.421875 756.878906 417.820312 739.792969 C 415.113281 734.476562 418.398438 735.113281 411.617188 726.433594 C 407.773438 721.273438 396.222656 717.605469 399.351562 700.886719 C 399.882812 699.234375 401.699219 696.550781 402.566406 694.417969 C 403.398438 692.171875 404.519531 687.507812 406.0625 685.878906 C 414.359375 675.191406 422.792969 665.695312 428.820312 653.53125 L 429.765625 666.1875 C 430.472656 669.875 432.742188 675.132812 432.914062 678.019531 C 432.878906 678.386719 432.886719 683.097656 433.390625 683.183594 C 433.574219 683.523438 425.953125 698.6875 433.390625 707.074219 C 435.1875 709.089844 443.117188 710.710938 442.179688 723.972656 C 446.0625 709.667969 437.445312 705.34375 437.039062 704.3125 C 433.542969 695.414062 441.011719 689.804688 442.371094 685.191406 C 442.574219 684.371094 442.933594 679.882812 443.085938 679.824219 C 444.488281 673.339844 442.75 670.695312 442.914062 664.960938 C 443.6875 659.480469 445 657.066406 444.632812 650.9375 C 444.351562 621.113281 439.503906 618.515625 429.226562 591.867188 C 424.328125 579.164062 420.660156 566.402344 422.019531 555.214844 C 433.738281 564.261719 448.796875 582.386719 452.667969 599.25 C 454.109375 605.667969 453.546875 614.191406 454.898438 621.824219 C 459.429688 642.839844 457.1875 643.773438 469.484375 660.269531 C 473.378906 665.683594 476.449219 675.820312 481.144531 683.675781 C 484.496094 692.140625 485.972656 699.765625 492.347656 706.621094 C 496.414062 710.710938 503.457031 711.675781 509.886719 719.503906 C 511.117188 721 511.53125 725.664062 512.929688 727.96875 C 516.1875 733.386719 513.550781 739.1875 522.203125 745.71875 C 515.75 738.539062 519.710938 734.84375 517.402344 725.992188 C 516.71875 722.777344 517.519531 720.652344 516.359375 716.746094 C 513.78125 709.1875 502.507812 700.257812 501.792969 698.859375 C 501.003906 697.140625 500.402344 694.371094 499.902344 691.339844 L 529.980469 701.40625 C 550.824219 703.878906 550.785156 695.789062 558.589844 700.953125 C 566.25 706.03125 564.625 703.300781 566.925781 710.703125 L 569.378906 714.03125 C 567.929688 709.777344 570.230469 704.59375 564.644531 700.710938 C 562.25 699.050781 560.308594 695.125 555.042969 693.886719 C 548.246094 692.304688 543.753906 696.273438 532.074219 691.765625 C 528.714844 690.335938 525.371094 687.652344 521.722656 685.898438 C 505.050781 678.011719 499.910156 675.261719 494.675781 660.222656 C 492.414062 654.179688 486.320312 643.851562 485.363281 639.007812 C 482.515625 627.539062 488.164062 605.089844 486.6875 591.171875 C 500.230469 603.175781 500.945312 625.417969 534.160156 630.417969 C 546.601562 632.289062 552.019531 630.761719 561.988281 640.859375 C 570.191406 649.429688 573.859375 655.8125 585.140625 661.285156 C 593.476562 664.613281 599.03125 662.742188 604.914062 665.019531 L 611.957031 673.8125 C 615.730469 679.21875 612.910156 685.722656 622.773438 691.042969 C 614.109375 684.21875 620.109375 681.175781 613.066406 665.78125 C 605.871094 650.046875 594.222656 663.878906 579.984375 640.695312 L 604.972656 634.421875 C 612.292969 631.082031 619.507812 620.964844 630.742188 632.480469 C 635.3125 637.019531 640.101562 640.636719 644.121094 645.761719 C 648.667969 651.378906 647.238281 665.539062 662.820312 667.867188 C 649.269531 663.550781 652.988281 651.234375 648.804688 642.914062 L 632.742188 621.277344 C 622.957031 612.886719 613.203125 614.316406 602.230469 619.230469 C 583.21875 627.753906 576.914062 621.207031 561.140625 612.550781 C 553.683594 608.746094 547.933594 607.464844 540.246094 604.945312 C 535.882812 603.429688 532.800781 602.183594 529.796875 598.59375 C 526.230469 595.339844 521.488281 573.640625 506.59375 559.484375 C 508.449219 559.425781 510.351562 559.394531 512.3125 559.40625 C 523.875 559.800781 533.089844 564.105469 544.34375 566.828125 C 565.910156 577.964844 592.125 566.730469 613.066406 578.574219 C 619.394531 582.15625 623.769531 587.039062 630.433594 590.484375 C 651.953125 601.160156 644.285156 585.40625 668.441406 611.855469 C 678.804688 623.207031 687.179688 626.777344 702.761719 625.359375 C 678.34375 624.488281 676.410156 610.917969 663.003906 594 C 682.097656 590.003906 686.640625 579.847656 709.867188 586.074219 C 717.683594 588.167969 722.589844 589.894531 728.898438 583.824219 C 714.976562 594.074219 710.527344 572.851562 679.203125 580.890625 C 664.964844 584.539062 650.3125 587.636719 637.175781 578.796875 C 627.253906 572.117188 626.65625 562.640625 599.378906 555.109375 C 622.617188 543.0625 629.777344 554.867188 651.972656 549.867188 C 670.316406 545.746094 680.082031 526.867188 701.648438 535.34375 C 716.214844 541.054688 726.996094 551.328125 744.949219 546.953125 C 720.929688 549.386719 709.847656 525.015625 689.074219 524.601562 C 670.246094 524.929688 664.566406 533.558594 649.328125 535.816406 C 635.222656 536.296875 623.410156 529.289062 608.535156 530.332031 C 590.984375 532.589844 577.308594 542.609375 562.085938 541.742188 C 551.035156 539.589844 541.328125 533.277344 528.558594 528.742188 C 517.09375 524.667969 503.253906 525.285156 491.757812 522.542969 C 484.359375 520.777344 474.738281 511.734375 468.25 503.507812 C 458.289062 486.8125 460.164062 461.917969 469.457031 446.058594 C 481.664062 425.203125 480.601562 425.355469 502.414062 412.847656 C 513.558594 406.449219 530.65625 405.203125 542.285156 410.992188 C 559.941406 419.777344 576.148438 437.613281 600.25 446.023438 C 622.617188 453.820312 649.65625 432.21875 688.917969 466.929688 C 651.644531 427.539062 623.054688 445.847656 603.996094 436.898438 C 596.066406 433.011719 590.445312 429.621094 585.800781 426.273438 C 609.617188 422.644531 623.894531 400.945312 642.652344 390.65625 C 652.871094 385.28125 661.101562 384.429688 672.546875 384.375 C 694.917969 385.195312 698.964844 391.765625 718.332031 398.476562 C 698.933594 389.480469 696.460938 381.863281 672.808594 378.957031 C 624.65625 374.027344 614.410156 406.390625 586.84375 410.046875 C 570.304688 412.238281 564.644531 398.222656 545.964844 389.632812 C 562.230469 377.203125 569.582031 360.570312 573.453125 340.679688 C 574.84375 333.554688 579.328125 322.03125 585.683594 317.910156 C 594.472656 312.417969 610.285156 308.75 620.503906 309.242188 C 652.734375 310.777344 710.785156 334.585938 725.265625 293.507812 C 706.554688 332.136719 651.539062 298.0625 614.082031 296.441406 C 604.546875 296.296875 596.644531 296.769531 588.386719 299.097656 C 622.464844 239.9375 657.285156 267.109375 689.113281 252.757812 C 694.820312 250.113281 702.769531 245.902344 705.996094 240.121094 C 697.621094 250.960938 675.976562 254.765625 662.625 254.109375 C 649.507812 253.460938 636.421875 250.894531 621.410156 255.863281 C 588.300781 267.5625 566.363281 305.371094 557.449219 337.195312 C 548.070312 370.667969 532.914062 375.347656 502.09375 385.25 C 484.109375 391.023438 467.96875 398.003906 452.824219 410.5 C 455.121094 396.496094 455.390625 377.152344 460.742188 362.859375 C 463.226562 356.246094 470.710938 342.320312 475.597656 337.347656 C 486.582031 326.546875 496.230469 331.335938 513.703125 313.914062 C 543.183594 284.53125 520.292969 273.105469 566.867188 253.839844 C 589.671875 244.398438 605.175781 237.3125 611.847656 211.484375 C 597.339844 244.765625 568.230469 237.507812 540.882812 248.75 C 542.835938 225.894531 538.160156 192.980469 558.609375 176.757812 C 572.390625 166.378906 597.515625 159.671875 614.253906 153.03125 C 594.269531 157.867188 570.519531 162.152344 554.695312 171.351562 C 533.96875 184.34375 530.5 212.738281 528.445312 234.917969 C 526.40625 256.90625 517.769531 284.433594 499.921875 299.058594 C 486.9375 309.703125 470.074219 306.507812 444.476562 331.867188 C 408.847656 256.878906 472.007812 258.074219 442.0625 190.480469 C 409.25 116.363281 483.316406 129.09375 500.171875 92.472656 C 504.460938 82.347656 504.507812 73.671875 503.273438 62.890625 C 504.460938 126.449219 436.855469 97.25 420.148438 146.882812 C 418.003906 153.765625 417.238281 159.796875 417.289062 166.175781 C 396.203125 151.941406 347.570312 132.847656 342.710938 110 C 339.214844 93.582031 360.832031 86.828125 358.484375 51.539062 C 358.890625 84.800781 333.816406 90.128906 335.84375 111.003906 C 339.089844 144.449219 400.644531 166.96875 418.398438 192.644531 L 426.230469 216.503906 C 427.265625 238.867188 402.90625 245.460938 391.34375 276.113281 C 351.933594 258.355469 319.578125 289.25 314.089844 224.101562 C 310.515625 181.640625 290.5625 177.421875 257.664062 167.730469 C 244.101562 163.746094 212.84375 159.664062 211 141.363281 C 204.671875 163.386719 256.050781 177.085938 276.757812 187.691406 C 303.957031 201.628906 291.199219 222.246094 297.082031 251.136719 C 266.925781 236.964844 238.835938 257.378906 220.910156 255.632812 C 206.992188 254.28125 196.097656 228.40625 162.578125 233.058594 C 195.738281 231.984375 201.804688 258.914062 219.421875 263.539062 C 233.1875 267.148438 256.492188 258.308594 275.957031 261.058594 C 296.5 263.964844 308.519531 292.273438 347.191406 296.644531 C 362.675781 298.429688 371.949219 299.761719 381.335938 313.226562 C 389.691406 325.214844 389.816406 334.007812 386.222656 348.03125 C 383.617188 358.207031 373.105469 376.914062 362.316406 380.425781 C 344.3125 370.203125 327.042969 372.703125 309.472656 366.710938 C 299.378906 363.265625 291.21875 356.914062 280.691406 353.671875 C 250.15625 343.835938 225.992188 348.816406 211.40625 322.253906 C 201.890625 304.917969 192.910156 288.738281 172.972656 281.847656 C 154.117188 275.332031 150.128906 281.683594 136.171875 284.996094 C 129.738281 286.414062 125.121094 285.390625 118.777344 284.453125 C 111.9375 283.191406 106.265625 278.304688 100.203125 274.328125 C 105.457031 279.964844 110.5 285.371094 118.226562 287.535156 C 148.378906 295.214844 146.34375 278.75 170.355469 288.886719 C 187.09375 295.949219 193.835938 312.136719 200.808594 327.472656 C 216.324219 361.613281 244.769531 358.890625 272.992188 370.582031 C 244.277344 374.625 245.078125 379.488281 233.824219 382.105469 C 227.59375 383.320312 219.402344 385.800781 213.308594 386.042969 C 206.449219 385.761719 201.042969 383.136719 194.308594 381.941406 C 183.984375 380.597656 173.859375 381.535156 164.007812 379.867188 C 157.914062 378.4375 151.367188 374.597656 145.859375 371.535156 C 138.230469 367.300781 135.96875 364.75 130.53125 358.253906 C 122.109375 348.167969 119.703125 353.140625 109.753906 348.332031 C 99.390625 343.140625 99.121094 348.4375 89.539062 350.515625 C 86.351562 351.160156 93.757812 351.226562 93.789062 351.226562 C 101.320312 350.640625 100.277344 348.71875 107.582031 353.003906 L 119.414062 356.585938 C 128.425781 359.027344 128.078125 370.714844 141.445312 379.539062 C 148.449219 383.917969 153.277344 387.984375 161.363281 390.589844 C 171.785156 393.386719 181.425781 393.1875 191.789062 395.464844 C 199.804688 397.789062 202.953125 400.414062 212.351562 401.582031 C 220.785156 402.210938 228.136719 400.40625 236.433594 399.46875 C 247.519531 398.03125 249.789062 393.550781 267.496094 392.152344 C 261.777344 395.898438 255.363281 406.679688 249.722656 412.566406 C 240.007812 422.710938 237.207031 427.449219 220.445312 427.382812 L 181.589844 420.40625 C 174.363281 420.230469 169.949219 423.9375 164.472656 427.625 C 160.523438 430.269531 156.707031 430.820312 154.195312 435.828125 C 156.753906 431.628906 161.238281 431.03125 165.417969 429.226562 C 170.453125 427.066406 174.769531 423.734375 181.261719 424.796875 C 187.691406 425.847656 208.644531 436.03125 219.566406 437.703125 C 228.957031 439.148438 244.382812 437.257812 252.273438 431.246094 C 254.464844 429.527344 256.445312 427.664062 258.589844 425.90625 C 262.832031 422.644531 267.332031 420.152344 271.148438 416.351562 C 277.976562 409.042969 288.929688 402.335938 298.859375 400.210938 C 304.488281 398.832031 314.089844 400.867188 319.625 401.71875 C 326.046875 402.675781 330.957031 406.042969 336.402344 407.925781 C 340.691406 409.632812 351.5 412.421875 357.625 421.902344 C 365.003906 434.3125 370.867188 456.792969 369.902344 475.886719 " fill-opacity="1" fill-rule="nonzero"/></g></svg>