<svg xmlns="http://www.w3.org/2000/svg" xmlns:xlink="http://www.w3.org/1999/xlink" width="1080" zoomAndPan="magnify" viewBox="0 0 810 809.999993" height="1080" preserveAspectRatio="xMidYMid meet" version="1.0"><path fill="#d0bbbe" d="M 432.46875 800.910156 C 417.65625 800.910156 403.347656 798.949219 389.722656 794.738281 C 352.332031 783.148438 332.445312 758 309.40625 728.90625 C 282.972656 695.519531 250.097656 653.972656 178.402344 617.519531 C 140.660156 598.324219 107.984375 588.515625 81.726562 580.628906 C 43.453125 569.121094 18.167969 561.519531 9.480469 534.917969 C 0.0898438 506.15625 20.085938 482.308594 43.210938 454.671875 C 67.242188 425.976562 97.136719 390.273438 105.097656 337.070312 C 113.210938 282.742188 93.632812 245.011719 76.371094 211.710938 C 60.101562 180.328125 46.054688 153.242188 58.644531 120.402344 C 74.40625 79.296875 128.710938 43.949219 200.363281 28.144531 C 288.878906 8.617188 375.105469 24.132812 420.015625 67.660156 C 455.222656 101.800781 456.191406 142.351562 457.230469 185.261719 C 458.265625 228.503906 459.324219 273.222656 494.003906 318.359375 C 542.636719 381.679688 614.953125 391 678.734375 399.222656 C 730.941406 405.945312 776.003906 411.761719 791.480469 447.929688 C 810.132812 491.566406 778.273438 566.808594 708.363281 644.300781 C 635.433594 725.074219 524.539062 800.886719 432.46875 800.910156 Z M 275.253906 26.382812 C 251.597656 26.382812 226.796875 29.046875 201.792969 34.582031 C 132.28125 49.921875 79.808594 83.707031 64.816406 122.738281 C 53.289062 152.800781 66.714844 178.675781 82.234375 208.625 C 99.960938 242.808594 120.066406 281.574219 111.644531 338.019531 C 103.421875 393.074219 72.863281 429.570312 48.304688 458.882812 C 25.53125 486.078125 7.539062 507.542969 15.785156 532.824219 C 23.390625 556.140625 47.355469 563.347656 83.644531 574.234375 C 110.144531 582.191406 143.128906 592.109375 181.402344 611.570312 C 254.375 648.683594 287.753906 690.847656 314.585938 724.742188 C 337.867188 754.144531 356.253906 777.371094 391.683594 788.371094 C 404.757812 792.425781 418.535156 794.296875 432.777344 794.320312 C 522.597656 794.320312 631.554688 719.476562 703.425781 639.824219 C 770.558594 565.421875 802.726562 491.105469 785.375 450.484375 C 771.394531 417.777344 728.050781 412.203125 677.875 405.746094 C 616.03125 397.765625 539.066406 387.871094 488.734375 322.371094 C 452.753906 275.515625 451.605469 227.644531 450.59375 185.417969 C 449.601562 143.894531 448.675781 104.664062 415.40625 72.398438 C 384.605469 42.535156 333.347656 26.382812 275.253906 26.382812 Z M 275.253906 26.382812 " fill-opacity="1" fill-rule="nonzero"/></svg>