<svg xmlns="http://www.w3.org/2000/svg" xmlns:xlink="http://www.w3.org/1999/xlink" width="1080" zoomAndPan="magnify" viewBox="0 0 810 809.999993" height="1080" preserveAspectRatio="xMidYMid meet" version="1.0"><defs><clipPath id="3b571a5c86"><path d="M 61 240 L 789 240 L 789 560 L 61 560 Z M 61 240 " clip-rule="nonzero"/></clipPath><clipPath id="1eb0051e2b"><path d="M 11.550781 493.894531 L 598.230469 51.140625 L 798.375 316.34375 L 211.695312 759.097656 Z M 11.550781 493.894531 " clip-rule="nonzero"/></clipPath><clipPath id="1d7435a3e4"><path d="M 598.390625 51.023438 L 11.710938 493.777344 L 211.851562 758.980469 L 798.53125 316.226562 Z M 598.390625 51.023438 " clip-rule="nonzero"/></clipPath><clipPath id="7c6f9a5a62"><path d="M 57 417 L 192 417 L 192 561 L 57 561 Z M 57 417 " clip-rule="nonzero"/></clipPath><clipPath id="69d2b83892"><path d="M 11.550781 493.894531 L 598.230469 51.140625 L 798.375 316.34375 L 211.695312 759.097656 Z M 11.550781 493.894531 " clip-rule="nonzero"/></clipPath><clipPath id="4fa53672f2"><path d="M 598.390625 51.023438 L 11.710938 493.777344 L 211.851562 758.980469 L 798.53125 316.226562 Z M 598.390625 51.023438 " clip-rule="nonzero"/></clipPath></defs><g clip-path="url(#3b571a5c86)"><g clip-path="url(#1eb0051e2b)"><g clip-path="url(#1d7435a3e4)"><path fill="#65a7b4" d="M 788.089844 324.121094 L 783.523438 321.824219 C 729.4375 290.464844 682.378906 272.160156 642.34375 266.902344 C 590.800781 259.960938 541.25 264.574219 493.6875 280.738281 C 413.109375 307.683594 367.855469 355.34375 357.925781 423.714844 C 355.808594 460.316406 367.078125 491.644531 391.742188 517.699219 C 417.667969 539.980469 442.601562 543.765625 466.539062 529.054688 C 479.226562 520.785156 484.5625 507.34375 482.554688 488.726562 C 478.449219 464.683594 469.40625 445.339844 455.421875 430.703125 C 427.605469 406.867188 384.917969 396.8125 327.351562 400.535156 C 284.675781 403.207031 246.085938 414.570312 211.589844 434.617188 C 193.601562 445.101562 175.265625 459.144531 156.578125 476.738281 L 132.574219 501.308594 L 92.394531 547.394531 L 83.300781 556.761719 C 79.8125 559.832031 74.550781 559.847656 67.523438 556.816406 C 61.929688 552.097656 59.9375 548.296875 61.546875 545.410156 C 67.867188 534.089844 77.304688 520.898438 89.855469 505.832031 C 114.914062 476.871094 145.511719 450.113281 181.652344 425.5625 C 222.574219 395.777344 275.363281 379.488281 340.015625 376.6875 C 405.183594 375.972656 451.460938 391.113281 478.855469 422.113281 C 495.773438 447.015625 504.570312 470.996094 505.242188 494.0625 C 505.609375 516.859375 496.785156 534.710938 478.773438 547.617188 C 445.804688 566.539062 413.425781 563.675781 381.632812 539.03125 C 350.117188 509.390625 334.488281 472.265625 334.742188 427.652344 C 338.824219 387.800781 353.46875 353.832031 378.675781 325.742188 C 409.230469 293.609375 447.457031 270.433594 493.355469 256.210938 C 561.488281 237.113281 624.164062 235.054688 681.390625 250.042969 C 719.828125 260.054688 748.957031 270.882812 768.773438 282.527344 C 773.238281 284.625 778.136719 289.242188 783.46875 296.382812 C 784.78125 299.0625 785.351562 301.542969 785.179688 303.824219 L 783.320312 318.71875 C 783.878906 320.511719 785.46875 322.3125 788.089844 324.121094 " fill-opacity="1" fill-rule="nonzero"/></g></g></g><g clip-path="url(#7c6f9a5a62)"><g clip-path="url(#69d2b83892)"><g clip-path="url(#4fa53672f2)"><path fill="#65a7b4" d="M 60.507812 539.824219 C 60.273438 540.140625 60.074219 540.449219 59.910156 540.753906 C 60.09375 540.429688 60.292969 540.121094 60.511719 539.820312 Z M 72.941406 542.847656 C 73.808594 543.453125 74.566406 544.203125 75.183594 545.066406 L 75.1875 545.0625 C 74.503906 544.078125 73.757812 543.339844 72.945312 542.84375 Z M 110.347656 419.359375 C 112.722656 417.550781 115.917969 416.902344 118.972656 417.90625 C 123.894531 419.527344 126.578125 424.832031 124.960938 429.753906 C 123.464844 434.316406 121.683594 439.015625 119.613281 443.847656 C 119.5625 443.96875 119.507812 444.089844 119.453125 444.210938 C 105.332031 473.71875 97.765625 490.058594 96.75 493.238281 L 96.753906 493.238281 C 96.699219 493.421875 96.640625 493.605469 96.578125 493.785156 C 89.496094 513.984375 84.296875 528.667969 80.976562 537.839844 L 80.980469 537.835938 C 94.84375 531.820312 127.347656 518.832031 178.488281 498.871094 C 183.316406 496.984375 188.757812 499.371094 190.644531 504.203125 C 192.207031 508.191406 190.847656 512.605469 187.605469 515.078125 C 186.921875 515.597656 186.160156 516.03125 185.324219 516.355469 C 123.015625 540.675781 88.964844 554.378906 83.171875 557.464844 C 82.847656 557.636719 82.515625 557.789062 82.175781 557.921875 C 77.6875 559.675781 74.003906 560.644531 71.132812 560.828125 C 66.753906 561.113281 63.355469 559.925781 60.9375 557.273438 L 60.941406 557.269531 C 58.285156 554.886719 57.300781 551.492188 57.988281 547.089844 C 58.195312 545.773438 58.585938 544.222656 59.167969 542.441406 C 59.332031 541.945312 59.535156 541.464844 59.773438 541.003906 L 59.777344 541.003906 C 61.082031 537.949219 67.410156 520.238281 78.761719 487.867188 L 78.765625 487.863281 C 78.800781 487.75 78.835938 487.636719 78.871094 487.519531 C 80.144531 483.53125 87.992188 466.464844 102.417969 436.320312 L 102.417969 436.316406 C 104.246094 432.03125 105.816406 427.890625 107.128906 423.890625 C 107.746094 422.015625 108.890625 420.46875 110.347656 419.359375 Z M 110.347656 419.359375 " fill-opacity="1" fill-rule="nonzero"/></g></g></g></svg>